<svg width="64" height="64" xmlns="http://www.w3.org/2000/svg">
  <!-- Enemy 1 (Wild Boar) Attacking Pose -->
  
  <!-- Body (leaning forward for charge) -->
  <ellipse cx="32" cy="40" rx="20" ry="12" fill="#8B4513" transform="rotate(-10 32 40)"/>
  
  <!-- Head (lowered for attack) -->
  <ellipse cx="48" cy="38" rx="10" ry="8" fill="#A0522D" transform="rotate(-15 48 38)"/>
  
  <!-- Snout -->
  <ellipse cx="56" cy="40" rx="4" ry="3" fill="#CD853F" transform="rotate(-15 56 40)"/>
  <circle cx="58" cy="39" r="1" fill="#000000"/> <!-- Nostril -->
  <circle cx="58" cy="41" r="1" fill="#000000"/> <!-- Nostril -->
  
  <!-- Eyes (angry) -->
  <path d="M49,34 L51,35" stroke="#000000" stroke-width="1"/> <!-- Angry eyebrow -->
  <circle cx="50" cy="36" r="1.5" fill="#FF0000"/> <!-- Red eye -->
  
  <!-- Ears (laid back) -->
  <ellipse cx="42" cy="32" rx="3" ry="4" fill="#A0522D" transform="rotate(-60 42 32)"/>
  <ellipse cx="44" cy="32" rx="2" ry="3" fill="#CD853F" transform="rotate(-60 44 32)"/>
  
  <!-- Tusks (more prominent) -->
  <path d="M54,42 L58,48" stroke="#FFFFFF" stroke-width="3" stroke-linecap="round"/>
  <path d="M52,42 L55,46" stroke="#FFFFFF" stroke-width="3" stroke-linecap="round"/>
  
  <!-- Legs (in charging position) -->
  <rect x="20" y="48" width="4" height="10" rx="1" fill="#8B4513" transform="rotate(20 20 48)"/> <!-- Back left leg -->
  <rect x="26" y="48" width="4" height="10" rx="1" fill="#8B4513" transform="rotate(-20 26 48)"/> <!-- Back right leg -->
  <rect x="38" y="48" width="4" height="10" rx="1" fill="#8B4513" transform="rotate(30 38 48)"/> <!-- Front left leg -->
  <rect x="44" y="48" width="4" height="10" rx="1" fill="#8B4513" transform="rotate(-30 44 48)"/> <!-- Front right leg -->
  
  <!-- Hooves -->
  <rect x="17" y="56" width="6" height="2" rx="1" fill="#000000" transform="rotate(20 17 56)"/> <!-- Back left hoof -->
  <rect x="25" y="56" width="6" height="2" rx="1" fill="#000000" transform="rotate(-20 25 56)"/> <!-- Back right hoof -->
  <rect x="35" y="56" width="6" height="2" rx="1" fill="#000000" transform="rotate(30 35 56)"/> <!-- Front left hoof -->
  <rect x="43" y="56" width="6" height="2" rx="1" fill="#000000" transform="rotate(-30 43 56)"/> <!-- Front right hoof -->
  
  <!-- Tail (raised in aggression) -->
  <path d="M12,36 Q14,30 16,28" stroke="#8B4513" stroke-width="2" fill="none"/>
  <path d="M16,28 L14,26" stroke="#8B4513" stroke-width="2" stroke-linecap="round"/>
  
  <!-- Back fur/hair (raised) -->
  <path d="M16,32 L20,26 L24,30 L28,25 L32,29 L36,24 L40,28 L44,23 L48,28" stroke="#8B4513" stroke-width="3" fill="none"/>
  
  <!-- Dust/motion effect -->
  <ellipse cx="10" cy="52" rx="4" ry="2" fill="#D2B48C" opacity="0.6"/>
  <ellipse cx="16" cy="54" rx="3" ry="1.5" fill="#D2B48C" opacity="0.5"/>
  <ellipse cx="22" cy="56" rx="2" ry="1" fill="#D2B48C" opacity="0.4"/>
  
  <!-- Attack motion lines -->
  <line x1="60" y1="36" x2="64" y2="36" stroke="#000000" stroke-width="1" stroke-dasharray="2,1"/>
  <line x1="60" y1="40" x2="64" y2="40" stroke="#000000" stroke-width="1" stroke-dasharray="2,1"/>
  <line x1="60" y1="44" x2="64" y2="44" stroke="#000000" stroke-width="1" stroke-dasharray="2,1"/>
</svg>