<svg width="64" height="64" xmlns="http://www.w3.org/2000/svg">
  <!-- Enemy 3 (Demon) Idle Pose -->
  
  <!-- Head with horns -->
  <circle cx="32" cy="18" r="8" fill="#800000"/> <!-- Red head -->
  
  <!-- Horns -->
  <path d="M28,12 Q24,8 22,4" stroke="#000000" stroke-width="2" fill="none"/> <!-- Left horn -->
  <path d="M36,12 Q40,8 42,4" stroke="#000000" stroke-width="2" fill="none"/> <!-- Right horn -->
  
  <!-- Face -->
  <circle cx="29" cy="16" r="1.5" fill="#FFFF00"/> <!-- Left eye -->
  <circle cx="35" cy="16" r="1.5" fill="#FFFF00"/> <!-- Right eye -->
  <path d="M30,20 Q32,22 34,20" stroke="#000000" stroke-width="1" fill="none"/> <!-- Mouth -->
  <path d="M30,20 L28,22 M34,20 L36,22" stroke="#000000" stroke-width="1"/> <!-- Fangs -->
  
  <!-- Torso -->
  <path d="M26,26 L38,26 L40,44 L24,44 Z" fill="#800000"/> <!-- Body -->
  <path d="M26,26 L38,26 L36,30 L28,30 Z" fill="#A00000"/> <!-- Chest detail -->
  
  <!-- Arms -->
  <path d="M26,26 Q22,32 20,40" stroke="#800000" stroke-width="4" fill="none"/> <!-- Left arm -->
  <path d="M38,26 Q42,32 44,40" stroke="#800000" stroke-width="4" fill="none"/> <!-- Right arm -->
  
  <!-- Hands with claws -->
  <circle cx="20" cy="40" r="3" fill="#800000"/> <!-- Left hand -->
  <path d="M18,38 L16,36 M20,37 L18,35 M22,38 L24,36" stroke="#000000" stroke-width="1"/> <!-- Left claws -->
  
  <circle cx="44" cy="40" r="3" fill="#800000"/> <!-- Right hand -->
  <path d="M42,38 L40,36 M44,37 L42,35 M46,38 L48,36" stroke="#000000" stroke-width="1"/> <!-- Right claws -->
  
  <!-- Legs -->
  <path d="M28,44 L26,56" stroke="#800000" stroke-width="4" fill="none"/> <!-- Left leg -->
  <path d="M36,44 L38,56" stroke="#800000" stroke-width="4" fill="none"/> <!-- Right leg -->
  
  <!-- Feet with claws -->
  <path d="M26,56 L24,60 M26,56 L26,60 M26,56 L28,60" stroke="#000000" stroke-width="2" fill="none"/> <!-- Left foot claws -->
  <path d="M38,56 L36,60 M38,56 L38,60 M38,56 L40,60" stroke="#000000" stroke-width="2" fill="none"/> <!-- Right foot claws -->
  
  <!-- Tail -->
  <path d="M32,44 Q28,50 24,52 Q20,54 18,58" stroke="#800000" stroke-width="3" fill="none"/>
  <path d="M18,58 L16,62" stroke="#000000" stroke-width="2" fill="none"/> <!-- Tail tip -->
  
  <!-- Wings (folded) -->
  <path d="M26,26 Q22,28 20,32 Q24,34 26,36" stroke="#600000" stroke-width="2" fill="#800000"/> <!-- Left wing -->
  <path d="M38,26 Q42,28 44,32 Q40,34 38,36" stroke="#600000" stroke-width="2" fill="#800000"/> <!-- Right wing -->
  
  <!-- Aura effect (subtle) -->
  <ellipse cx="32" cy="32" rx="24" ry="30" stroke="#FF0000" stroke-width="0.5" fill="none" opacity="0.3"/>
</svg>