<svg width="64" height="64" xmlns="http://www.w3.org/2000/svg">
  <!-- Enemy 3 (Demon) Attacking Pose -->
  
  <!-- Head with horns (aggressive pose) -->
  <circle cx="32" cy="18" r="8" fill="#800000"/> <!-- Red head -->
  
  <!-- Horns (more prominent in attack) -->
  <path d="M28,12 Q22,6 18,2" stroke="#000000" stroke-width="3" fill="none"/> <!-- Left horn -->
  <path d="M36,12 Q42,6 46,2" stroke="#000000" stroke-width="3" fill="none"/> <!-- Right horn -->
  
  <!-- Face (angry) -->
  <circle cx="29" cy="16" r="1.5" fill="#FF0000"/> <!-- Left eye (red) -->
  <circle cx="35" cy="16" r="1.5" fill="#FF0000"/> <!-- Right eye (red) -->
  <path d="M28,20 Q32,24 36,20" stroke="#000000" stroke-width="2" fill="none"/> <!-- Snarling mouth -->
  <path d="M28,20 L26,24 M36,20 L38,24" stroke="#000000" stroke-width="2"/> <!-- Extended fangs -->
  
  <!-- Torso (tensed for attack) -->
  <path d="M26,26 L38,26 L40,44 L24,44 Z" fill="#800000" transform="rotate(-5 32 35)"/> <!-- Body -->
  <path d="M26,26 L38,26 L36,30 L28,30 Z" fill="#A00000" transform="rotate(-5 32 35)"/> <!-- Chest detail -->
  
  <!-- Arms (attack position) -->
  <path d="M26,26 Q22,32 20,40" stroke="#800000" stroke-width="4" fill="none" transform="rotate(-10 26 26)"/> <!-- Left arm -->
  <path d="M38,26 Q46,20 52,16" stroke="#800000" stroke-width="4" fill="none"/> <!-- Right arm raised for attack -->
  
  <!-- Hands with claws -->
  <circle cx="20" cy="40" r="3" fill="#800000" transform="rotate(-10 26 26)"/> <!-- Left hand -->
  <path d="M18,38 L16,36 M20,37 L18,35 M22,38 L24,36" stroke="#000000" stroke-width="1" transform="rotate(-10 26 26)"/> <!-- Left claws -->
  
  <circle cx="52" cy="16" r="3" fill="#800000"/> <!-- Right hand -->
  <path d="M50,14 L48,10 M52,13 L50,9 M54,14 L56,10" stroke="#000000" stroke-width="2"/> <!-- Right claws extended -->
  
  <!-- Legs (in attack stance) -->
  <path d="M28,44 L24,56" stroke="#800000" stroke-width="4" fill="none"/> <!-- Left leg -->
  <path d="M36,44 L40,56" stroke="#800000" stroke-width="4" fill="none"/> <!-- Right leg -->
  
  <!-- Feet with claws -->
  <path d="M24,56 L22,60 M24,56 L24,60 M24,56 L26,60" stroke="#000000" stroke-width="2" fill="none"/> <!-- Left foot claws -->
  <path d="M40,56 L38,60 M40,56 L40,60 M40,56 L42,60" stroke="#000000" stroke-width="2" fill="none"/> <!-- Right foot claws -->
  
  <!-- Tail (thrashing in attack) -->
  <path d="M32,44 Q36,48 40,48 Q44,48 48,52" stroke="#800000" stroke-width="3" fill="none"/>
  <path d="M48,52 L52,54" stroke="#000000" stroke-width="2" fill="none"/> <!-- Tail tip -->
  
  <!-- Wings (partially extended for attack) -->
  <path d="M26,26 Q18,24 14,28 Q12,32 14,36 Q18,38 22,36" stroke="#600000" stroke-width="2" fill="#800000"/> <!-- Left wing -->
  <path d="M38,26 Q46,24 50,28 Q52,32 50,36 Q46,38 42,36" stroke="#600000" stroke-width="2" fill="#800000"/> <!-- Right wing -->
  
  <!-- Attack effect -->
  <path d="M52,16 Q56,12 60,8" stroke="#FF0000" stroke-width="1" stroke-dasharray="2,1" opacity="0.8"/>
  <path d="M52,16 Q56,16 60,16" stroke="#FF0000" stroke-width="1" stroke-dasharray="2,1" opacity="0.8"/>
  <path d="M52,16 Q56,20 60,24" stroke="#FF0000" stroke-width="1" stroke-dasharray="2,1" opacity="0.8"/>
  
  <!-- Energy aura (intensified) -->
  <ellipse cx="32" cy="32" rx="26" ry="32" stroke="#FF0000" stroke-width="1" fill="none" opacity="0.5"/>
  <ellipse cx="32" cy="32" rx="28" ry="34" stroke="#FF0000" stroke-width="0.5" fill="none" opacity="0.3"/>
</svg>