<svg width="64" height="64" xmlns="http://www.w3.org/2000/svg">
  <!-- Bulma Idle Pose -->
  
  <!-- Hair -->
  <path d="M32,8 C38,8 42,12 42,18 C42,24 38,28 32,28 C26,28 22,24 22,18 C22,12 26,8 32,8 Z" fill="#4169E1"/> <!-- Blue hair -->
  <path d="M22,18 C22,12 26,8 32,8 C32,8 30,14 30,18 C30,22 32,28 32,28 C26,28 22,24 22,18 Z" fill="#6495ED"/> <!-- Hair highlight -->
  
  <!-- Head -->
  <circle cx="32" cy="18" r="10" fill="#FFD700"/>
  
  <!-- Face -->
  <circle cx="28" cy="16" r="1" fill="#000000"/> <!-- Left eye -->
  <circle cx="36" cy="16" r="1" fill="#000000"/> <!-- Right eye -->
  <path d="M30,20 Q32,22 34,20" stroke="#000000" stroke-width="1" fill="none"/> <!-- Smile -->
  <path d="M28,15 Q28,14 29,14" stroke="#000000" stroke-width="1" fill="none"/> <!-- Left eyebrow -->
  <path d="M35,14 Q36,14 36,15" stroke="#000000" stroke-width="1" fill="none"/> <!-- Right eyebrow -->
  
  <!-- Neck -->
  <rect x="30" y="28" width="4" height="2" fill="#FFD700"/>
  
  <!-- Torso - Dress/Outfit -->
  <path d="M26,30 L38,30 L40,50 L24,50 Z" fill="#FF69B4"/> <!-- Pink dress/top -->
  
  <!-- Arms -->
  <rect x="24" y="32" width="4" height="12" rx="2" fill="#FFD700"/> <!-- Left arm -->
  <rect x="36" y="32" width="4" height="12" rx="2" fill="#FFD700"/> <!-- Right arm -->
  
  <!-- Hands -->
  <circle cx="26" cy="46" r="2" fill="#FFD700"/> <!-- Left hand -->
  <circle cx="38" cy="46" r="2" fill="#FFD700"/> <!-- Right hand -->
  
  <!-- Legs -->
  <rect x="28" y="50" width="3" height="12" fill="#FFD700"/> <!-- Left leg -->
  <rect x="33" y="50" width="3" height="12" fill="#FFD700"/> <!-- Right leg -->
  
  <!-- Feet -->
  <rect x="26" y="62" width="5" height="2" rx="1" fill="#FF69B4"/> <!-- Left shoe -->
  <rect x="33" y="62" width="5" height="2" rx="1" fill="#FF69B4"/> <!-- Right shoe -->
  
  <!-- Accessories -->
  <circle cx="32" cy="32" r="1" fill="#FFFFFF"/> <!-- Necklace pendant -->
  <path d="M28,32 Q32,34 36,32" stroke="#FFFFFF" stroke-width="1" fill="none"/> <!-- Necklace chain -->
  <rect x="24" y="50" width="16" height="2" fill="#FF69B4"/> <!-- Belt/waistband -->
</svg>