<svg width="64" height="64" xmlns="http://www.w3.org/2000/svg">
  <!-- Bulma Attacking Pose -->
  
  <!-- Hair (flowing with attack motion) -->
  <path d="M32,8 C38,8 42,12 42,18 C42,24 38,28 32,28 C26,28 22,24 22,18 C22,12 26,8 32,8 Z" fill="#4169E1" transform="rotate(-10 32 18)"/> <!-- Blue hair -->
  <path d="M22,18 C22,12 26,8 32,8 C32,8 30,14 30,18 C30,22 32,28 32,28 C26,28 22,24 22,18 Z" fill="#6495ED" transform="rotate(-10 32 18)"/> <!-- Hair highlight -->
  
  <!-- Motion lines in hair -->
  <path d="M42,18 L46,16 M42,20 L47,19 M42,22 L45,22" stroke="#4169E1" stroke-width="1" stroke-dasharray="2,1" transform="rotate(-10 32 18)"/>
  
  <!-- Head (turned for attack) -->
  <circle cx="32" cy="18" r="10" fill="#FFD700" transform="rotate(-10 32 18)"/>
  
  <!-- Face (determined expression) -->
  <circle cx="28" cy="16" r="1" fill="#000000" transform="rotate(-10 32 18)"/> <!-- Left eye -->
  <circle cx="36" cy="16" r="1" fill="#000000" transform="rotate(-10 32 18)"/> <!-- Right eye -->
  <path d="M30,20 L34,20" stroke="#000000" stroke-width="1" transform="rotate(-10 32 18)"/> <!-- Serious mouth -->
  <path d="M27,14 Q28,13 29,13" stroke="#000000" stroke-width="1" fill="none" transform="rotate(-10 32 18)"/> <!-- Left eyebrow (furrowed) -->
  <path d="M35,13 Q36,12 37,13" stroke="#000000" stroke-width="1" fill="none" transform="rotate(-10 32 18)"/> <!-- Right eyebrow (furrowed) -->
  
  <!-- Neck -->
  <rect x="30" y="28" width="4" height="2" fill="#FFD700" transform="rotate(-10 32 18)"/>
  
  <!-- Torso - Dress/Outfit (twisted for attack) -->
  <path d="M26,30 L38,30 L40,44 L24,44 Z" fill="#FF69B4" transform="rotate(-15 32 37)"/> <!-- Pink dress/top -->
  
  <!-- Arms (in attack position) -->
  <rect x="24" y="30" width="4" height="12" rx="2" transform="rotate(-15 24 30)" fill="#FFD700"/> <!-- Left arm back -->
  <rect x="40" y="30" width="4" height="12" rx="2" transform="rotate(-80 40 30)" fill="#FFD700"/> <!-- Right arm forward (attacking) -->
  
  <!-- Hands -->
  <circle cx="22" cy="36" r="2" fill="#FFD700"/> <!-- Left hand -->
  <circle cx="48" cy="26" r="2" fill="#FFD700"/> <!-- Right hand (attacking) -->
  
  <!-- Weapon (laser gun or gadget) -->
  <rect x="48" y="24" width="8" height="4" rx="1" fill="#A9A9A9"/> <!-- Gun body -->
  <rect x="56" y="25" width="4" height="2" rx="1" fill="#A9A9A9"/> <!-- Gun barrel -->
  <circle cx="50" cy="26" r="1" fill="#FF0000"/> <!-- Button/light -->
  
  <!-- Attack effect -->
  <path d="M60,26 L64,26" stroke="#00FFFF" stroke-width="2" stroke-dasharray="2,1"/>
  <path d="M60,26 Q62,24 64,22" stroke="#00FFFF" stroke-width="1" stroke-dasharray="2,1"/>
  <path d="M60,26 Q62,28 64,30" stroke="#00FFFF" stroke-width="1" stroke-dasharray="2,1"/>
  
  <!-- Legs (in attack stance) -->
  <rect x="28" y="44" width="3" height="12" transform="rotate(-5 28 44)" fill="#FFD700"/> <!-- Left leg -->
  <rect x="36" y="44" width="3" height="12" transform="rotate(-25 36 44)" fill="#FFD700"/> <!-- Right leg -->
  
  <!-- Feet -->
  <rect x="27" y="56" width="5" height="2" rx="1" transform="rotate(-5 27 56)" fill="#FF69B4"/> <!-- Left shoe -->
  <rect x="33" y="54" width="5" height="2" rx="1" transform="rotate(-25 33 54)" fill="#FF69B4"/> <!-- Right shoe -->
  
  <!-- Accessories -->
  <circle cx="32" cy="32" r="1" fill="#FFFFFF" transform="rotate(-15 32 32)"/> <!-- Necklace pendant -->
  <path d="M28,32 Q32,34 36,32" stroke="#FFFFFF" stroke-width="1" fill="none" transform="rotate(-15 32 32)"/> <!-- Necklace chain -->
  <rect x="24" y="44" width="16" height="2" fill="#FF69B4" transform="rotate(-15 32 44)"/> <!-- Belt/waistband -->
</svg>