<svg width="64" height="64" xmlns="http://www.w3.org/2000/svg">
  <!-- Bulma Jumping Pose -->
  
  <!-- Hair (flowing up with jump) -->
  <path d="M32,8 C38,8 42,12 42,18 C42,24 38,28 32,28 C26,28 22,24 22,18 C22,12 26,8 32,8 Z" fill="#4169E1" transform="skewY(-5)"/> <!-- Blue hair -->
  <path d="M22,18 C22,12 26,8 32,8 C32,8 30,14 30,18 C30,22 32,28 32,28 C26,28 22,24 22,18 Z" fill="#6495ED" transform="skewY(-5)"/> <!-- Hair highlight -->
  
  <!-- Motion lines in hair (upward) -->
  <path d="M28,10 L26,6 M32,8 L32,4 M36,10 L38,6" stroke="#4169E1" stroke-width="1" stroke-dasharray="2,1"/>
  
  <!-- Head (looking up) -->
  <circle cx="32" cy="18" r="10" fill="#FFD700"/>
  
  <!-- Face -->
  <circle cx="28" cy="16" r="1" fill="#000000"/> <!-- Left eye -->
  <circle cx="36" cy="16" r="1" fill="#000000"/> <!-- Right eye -->
  <path d="M30,20 Q32,22 34,20" stroke="#000000" stroke-width="1" fill="none"/> <!-- Smile -->
  <path d="M28,14 Q28,13 29,13" stroke="#000000" stroke-width="1" fill="none"/> <!-- Left eyebrow -->
  <path d="M35,13 Q36,13 36,14" stroke="#000000" stroke-width="1" fill="none"/> <!-- Right eyebrow -->
  
  <!-- Neck -->
  <rect x="30" y="28" width="4" height="2" fill="#FFD700"/>
  
  <!-- Torso - Dress/Outfit (slightly arched back) -->
  <path d="M26,30 L38,30 L40,44 L24,44 Z" fill="#FF69B4" transform="rotate(5 32 37)"/> <!-- Pink dress/top -->
  
  <!-- Arms (raised for jump) -->
  <rect x="24" y="30" width="4" height="12" rx="2" transform="rotate(-45 24 30)" fill="#FFD700"/> <!-- Left arm up -->
  <rect x="40" y="30" width="4" height="12" rx="2" transform="rotate(45 40 30)" fill="#FFD700"/> <!-- Right arm up -->
  
  <!-- Hands -->
  <circle cx="18" cy="24" r="2" fill="#FFD700"/> <!-- Left hand -->
  <circle cx="46" cy="24" r="2" fill="#FFD700"/> <!-- Right hand -->
  
  <!-- Legs (bent for jump) -->
  <rect x="28" y="44" width="3" height="10" transform="rotate(-30 28 44)" fill="#FFD700"/> <!-- Left leg -->
  <rect x="36" y="44" width="3" height="10" transform="rotate(30 36 44)" fill="#FFD700"/> <!-- Right leg -->
  
  <!-- Feet -->
  <rect x="22" y="50" width="5" height="2" rx="1" transform="rotate(-30 22 50)" fill="#FF69B4"/> <!-- Left shoe -->
  <rect x="42" y="50" width="5" height="2" rx="1" transform="rotate(30 42 50)" fill="#FF69B4"/> <!-- Right shoe -->
  
  <!-- Accessories -->
  <circle cx="32" cy="32" r="1" fill="#FFFFFF"/> <!-- Necklace pendant -->
  <path d="M28,32 Q32,34 36,32" stroke="#FFFFFF" stroke-width="1" fill="none" transform="rotate(5 32 33)"/> <!-- Necklace chain -->
  <rect x="24" y="44" width="16" height="2" fill="#FF69B4" transform="rotate(5 32 45)"/> <!-- Belt/waistband -->
  
  <!-- Jump effect/motion lines -->
  <path d="M20,56 Q32,52 44,56" stroke="#000000" stroke-width="1" stroke-dasharray="2,2" fill="none"/> <!-- Ground impact line -->
  <line x1="24" y1="60" x2="24" y2="56" stroke="#000000" stroke-width="1" stroke-dasharray="2,2"/>
  <line x1="32" y1="62" x2="32" y2="58" stroke="#000000" stroke-width="1" stroke-dasharray="2,2"/>
  <line x1="40" y1="60" x2="40" y2="56" stroke="#000000" stroke-width="1" stroke-dasharray="2,2"/>
</svg>