<svg width="64" height="64" xmlns="http://www.w3.org/2000/svg">
  <!-- Bulma Running Pose -->
  
  <!-- Hair (flowing back with motion) -->
  <path d="M32,8 C38,8 42,12 42,18 C42,24 38,28 32,28 C26,28 22,24 22,18 C22,12 26,8 32,8 Z" fill="#4169E1" transform="skewX(-5)"/> <!-- Blue hair -->
  <path d="M22,18 C22,12 26,8 32,8 C32,8 30,14 30,18 C30,22 32,28 32,28 C26,28 22,24 22,18 Z" fill="#6495ED" transform="skewX(-5)"/> <!-- Hair highlight -->
  
  <!-- Motion lines in hair -->
  <path d="M42,18 L46,16 M42,20 L47,19 M42,22 L45,22" stroke="#4169E1" stroke-width="1" stroke-dasharray="2,1"/>
  
  <!-- Head (slightly tilted forward) -->
  <circle cx="32" cy="18" r="10" fill="#FFD700"/>
  
  <!-- Face -->
  <circle cx="28" cy="16" r="1" fill="#000000"/> <!-- Left eye -->
  <circle cx="36" cy="16" r="1" fill="#000000"/> <!-- Right eye -->
  <path d="M30,20 Q32,22 34,20" stroke="#000000" stroke-width="1" fill="none"/> <!-- Smile -->
  <path d="M28,15 Q28,14 29,14" stroke="#000000" stroke-width="1" fill="none"/> <!-- Left eyebrow -->
  <path d="M35,14 Q36,14 36,15" stroke="#000000" stroke-width="1" fill="none"/> <!-- Right eyebrow -->
  
  <!-- Neck -->
  <rect x="30" y="28" width="4" height="2" fill="#FFD700"/>
  
  <!-- Torso - Dress/Outfit (leaning forward) -->
  <path d="M26,30 L38,30 L42,48 L22,48 Z" fill="#FF69B4" transform="rotate(-5 32 39)"/> <!-- Pink dress/top -->
  
  <!-- Arms (in running position) -->
  <rect x="20" y="34" width="4" height="12" rx="2" transform="rotate(30 20 34)" fill="#FFD700"/> <!-- Left arm forward -->
  <rect x="44" y="34" width="4" height="12" rx="2" transform="rotate(-30 44 34)" fill="#FFD700"/> <!-- Right arm back -->
  
  <!-- Hands -->
  <circle cx="16" cy="40" r="2" fill="#FFD700"/> <!-- Left hand -->
  <circle cx="48" cy="40" r="2" fill="#FFD700"/> <!-- Right hand -->
  
  <!-- Legs (in running stride) -->
  <rect x="26" y="48" width="3" height="12" transform="rotate(-30 26 48)" fill="#FFD700"/> <!-- Left leg back -->
  <rect x="36" y="48" width="3" height="12" transform="rotate(30 36 48)" fill="#FFD700"/> <!-- Right leg forward -->
  
  <!-- Feet -->
  <rect x="20" y="56" width="5" height="2" rx="1" transform="rotate(-30 20 56)" fill="#FF69B4"/> <!-- Left shoe -->
  <rect x="42" y="56" width="5" height="2" rx="1" transform="rotate(30 42 56)" fill="#FF69B4"/> <!-- Right shoe -->
  
  <!-- Accessories -->
  <circle cx="32" cy="32" r="1" fill="#FFFFFF"/> <!-- Necklace pendant -->
  <path d="M28,32 Q32,34 36,32" stroke="#FFFFFF" stroke-width="1" fill="none" transform="rotate(-5 32 33)"/> <!-- Necklace chain -->
  <rect x="22" y="48" width="20" height="2" fill="#FF69B4" transform="rotate(-5 32 49)"/> <!-- Belt/waistband -->
  
  <!-- Motion lines -->
  <line x1="12" y1="40" x2="8" y2="40" stroke="#000000" stroke-width="1" stroke-dasharray="2,2"/>
  <line x1="14" y1="50" x2="10" y2="50" stroke="#000000" stroke-width="1" stroke-dasharray="2,2"/>
  <line x1="16" y1="60" x2="12" y2="60" stroke="#000000" stroke-width="1" stroke-dasharray="2,2"/>
</svg>