<svg width="64" height="64" xmlns="http://www.w3.org/2000/svg">
  <!-- Goku Idle Pose -->
  
  <!-- Hair -->
  <path d="M32,10 L28,5 L26,8 L24,4 L22,7 L20,3 L18,8 L16,5 L14,9 L18,12 L20,10 L22,13 L24,10 L26,14 L28,11 L30,15 L34,11 L36,15 L38,12 L40,16 L42,13 L44,17 L46,14 L44,10 L42,12 L40,9 L38,11 L36,8 L34,12 Z" fill="#000000"/>
  
  <!-- Head -->
  <circle cx="32" cy="20" r="10" fill="#FFD700"/>
  
  <!-- Face -->
  <circle cx="28" cy="18" r="1" fill="#000000"/> <!-- Left eye -->
  <circle cx="36" cy="18" r="1" fill="#000000"/> <!-- Right eye -->
  <path d="M30,22 Q32,24 34,22" stroke="#000000" stroke-width="1" fill="none"/> <!-- Smile -->
  
  <!-- Neck -->
  <rect x="30" y="30" width="4" height="2" fill="#FFD700"/>
  
  <!-- Torso - Gi Top -->
  <path d="M26,32 L38,32 L40,50 L22,50 Z" fill="#FF6600"/> <!-- Orange Gi -->
  <path d="M30,32 L34,32 L34,42 L30,42 Z" fill="#0000FF"/> <!-- Blue undershirt -->
  <path d="M26,32 L30,32 L30,36 L26,36 Z" fill="#0000FF"/> <!-- Left sleeve -->
  <path d="M34,32 L38,32 L38,36 L34,36 Z" fill="#0000FF"/> <!-- Right sleeve -->
  
  <!-- Belt -->
  <rect x="22" y="42" width="18" height="2" fill="#0000FF"/>
  
  <!-- Arms -->
  <rect x="24" y="36" width="4" height="10" rx="2" fill="#FFD700"/> <!-- Left arm -->
  <rect x="36" y="36" width="4" height="10" rx="2" fill="#FFD700"/> <!-- Right arm -->
  
  <!-- Hands -->
  <circle cx="26" cy="48" r="2" fill="#FFD700"/> <!-- Left hand -->
  <circle cx="38" cy="48" r="2" fill="#FFD700"/> <!-- Right hand -->
  
  <!-- Legs -->
  <rect x="26" y="50" width="4" height="12" fill="#0000FF"/> <!-- Left leg -->
  <rect x="34" y="50" width="4" height="12" fill="#0000FF"/> <!-- Right leg -->
  
  <!-- Feet -->
  <rect x="24" y="62" width="6" height="2" rx="1" fill="#000000"/> <!-- Left foot -->
  <rect x="34" y="62" width="6" height="2" rx="1" fill="#000000"/> <!-- Right foot -->
</svg>