<svg width="64" height="64" xmlns="http://www.w3.org/2000/svg">
  <!-- Goku Attacking Pose -->
  
  <!-- Hair (flowing with motion) -->
  <path d="M32,10 L28,4 L26,7 L24,3 L22,6 L20,2 L18,7 L16,4 L14,8 L18,11 L20,9 L22,12 L24,9 L26,13 L28,10 L30,14 L34,10 L36,14 L38,11 L40,15 L42,12 L44,16 L48,10 L46,8 L44,11 L42,7 L40,10 L38,6 L36,9 Z" fill="#000000"/>
  
  <!-- Head (turned slightly for attack) -->
  <circle cx="30" cy="20" r="10" fill="#FFD700"/>
  
  <!-- Face (intense expression) -->
  <circle cx="26" cy="18" r="1" fill="#000000"/> <!-- Left eye -->
  <circle cx="34" cy="18" r="1" fill="#000000"/> <!-- Right eye -->
  <path d="M28,22 Q30,23 32,22" stroke="#000000" stroke-width="1" fill="none"/> <!-- Determined mouth -->
  <line x1="26" y1="16" x2="28" y2="17" stroke="#000000" stroke-width="1"/> <!-- Left eyebrow -->
  <line x1="32" y1="17" x2="34" y2="16" stroke="#000000" stroke-width="1"/> <!-- Right eyebrow -->
  
  <!-- Neck -->
  <rect x="28" y="30" width="4" height="2" fill="#FFD700"/>
  
  <!-- Torso - Gi Top (twisted for punch) -->
  <path d="M24,32 L36,32 L38,50 L22,50 Z" fill="#FF6600" transform="rotate(-15 30 41)"/> <!-- Orange Gi -->
  <path d="M28,32 L32,32 L32,42 L28,42 Z" fill="#0000FF" transform="rotate(-15 30 37)"/> <!-- Blue undershirt -->
  <path d="M24,32 L28,32 L28,36 L24,36 Z" fill="#0000FF" transform="rotate(-15 26 34)"/> <!-- Left sleeve -->
  <path d="M32,32 L36,32 L36,36 L32,36 Z" fill="#0000FF" transform="rotate(-15 34 34)"/> <!-- Right sleeve -->
  
  <!-- Belt -->
  <rect x="22" y="42" width="16" height="2" fill="#0000FF" transform="rotate(-15 30 43)"/>
  
  <!-- Left Arm (pulled back) -->
  <rect x="22" y="36" width="4" height="10" rx="2" transform="rotate(-45 22 36)" fill="#FFD700"/>
  <circle cx="16" cy="42" r="2" fill="#FFD700"/> <!-- Left hand -->
  
  <!-- Right Arm (extended for punch) -->
  <rect x="34" y="36" width="4" height="14" rx="2" transform="rotate(15 34 36)" fill="#FFD700"/>
  <circle cx="50" cy="38" r="3" fill="#FFD700"/> <!-- Right hand (fist) -->
  
  <!-- Punch effect -->
  <circle cx="54" cy="38" r="2" fill="#FFFFFF" opacity="0.8"/>
  <circle cx="57" cy="38" r="1.5" fill="#FFFFFF" opacity="0.6"/>
  <circle cx="59" cy="38" r="1" fill="#FFFFFF" opacity="0.4"/>
  <line x1="50" y1="38" x2="60" y2="38" stroke="#FFFFFF" stroke-width="1" stroke-dasharray="1,1"/>
  
  <!-- Legs (in stable stance) -->
  <rect x="26" y="50" width="4" height="12" transform="rotate(-5 26 50)" fill="#0000FF"/> <!-- Left leg -->
  <rect x="34" y="50" width="4" height="12" transform="rotate(15 34 50)" fill="#0000FF"/> <!-- Right leg -->
  
  <!-- Feet -->
  <rect x="24" y="62" width="6" height="2" rx="1" transform="rotate(-5 24 62)" fill="#000000"/> <!-- Left foot -->
  <rect x="36" y="62" width="6" height="2" rx="1" transform="rotate(15 36 62)" fill="#000000"/> <!-- Right foot -->
  
  <!-- Motion lines for attack -->
  <line x1="38" y1="36" x2="48" y2="38" stroke="#000000" stroke-width="1" stroke-dasharray="2,1"/>
  <line x1="38" y1="38" x2="48" y2="40" stroke="#000000" stroke-width="1" stroke-dasharray="2,1"/>
  <line x1="38" y1="40" x2="48" y2="42" stroke="#000000" stroke-width="1" stroke-dasharray="2,1"/>
</svg>