<svg width="64" height="64" xmlns="http://www.w3.org/2000/svg">
  <!-- Goku Running Pose -->
  
  <!-- Hair (flowing back slightly) -->
  <path d="M32,10 L28,4 L26,7 L24,3 L22,6 L20,2 L18,7 L16,4 L14,8 L18,11 L20,9 L22,12 L24,9 L26,13 L28,10 L30,14 L34,10 L36,14 L38,11 L40,15 L42,12 L44,16 L48,10 L46,8 L44,11 L42,7 L40,10 L38,6 L36,9 Z" fill="#000000"/>
  
  <!-- Head (slightly tilted forward) -->
  <circle cx="32" cy="20" r="10" fill="#FFD700"/>
  
  <!-- Face -->
  <circle cx="28" cy="18" r="1" fill="#000000"/> <!-- Left eye -->
  <circle cx="36" cy="18" r="1" fill="#000000"/> <!-- Right eye -->
  <path d="M30,22 Q32,24 34,22" stroke="#000000" stroke-width="1" fill="none"/> <!-- Smile -->
  
  <!-- Neck -->
  <rect x="30" y="30" width="4" height="2" fill="#FFD700"/>
  
  <!-- Torso - Gi Top (leaning forward) -->
  <path d="M26,32 L38,32 L42,48 L20,48 Z" fill="#FF6600"/> <!-- Orange Gi -->
  <path d="M30,32 L34,32 L35,42 L29,42 Z" fill="#0000FF"/> <!-- Blue undershirt -->
  <path d="M26,32 L30,32 L29,36 L25,36 Z" fill="#0000FF"/> <!-- Left sleeve -->
  <path d="M34,32 L38,32 L39,36 L35,36 Z" fill="#0000FF"/> <!-- Right sleeve -->
  
  <!-- Belt -->
  <rect x="20" y="42" width="22" height="2" fill="#0000FF"/>
  
  <!-- Arms (in running position) -->
  <rect x="18" y="36" width="4" height="10" rx="2" transform="rotate(30 18 36)" fill="#FFD700"/> <!-- Left arm forward -->
  <rect x="42" y="36" width="4" height="10" rx="2" transform="rotate(-30 42 36)" fill="#FFD700"/> <!-- Right arm back -->
  
  <!-- Hands -->
  <circle cx="14" cy="42" r="2" fill="#FFD700"/> <!-- Left hand -->
  <circle cx="46" cy="42" r="2" fill="#FFD700"/> <!-- Right hand -->
  
  <!-- Legs (in running stride) -->
  <rect x="24" y="48" width="4" height="12" transform="rotate(-30 24 48)" fill="#0000FF"/> <!-- Left leg back -->
  <rect x="34" y="48" width="4" height="12" transform="rotate(30 34 48)" fill="#0000FF"/> <!-- Right leg forward -->
  
  <!-- Feet -->
  <rect x="18" y="58" width="6" height="2" rx="1" transform="rotate(-30 18 58)" fill="#000000"/> <!-- Left foot -->
  <rect x="40" y="58" width="6" height="2" rx="1" transform="rotate(30 40 58)" fill="#000000"/> <!-- Right foot -->
  
  <!-- Motion lines -->
  <line x1="10" y1="40" x2="5" y2="40" stroke="#000000" stroke-width="1" stroke-dasharray="2,2"/>
  <line x1="12" y1="50" x2="7" y2="50" stroke="#000000" stroke-width="1" stroke-dasharray="2,2"/>
  <line x1="14" y1="60" x2="9" y2="60" stroke="#000000" stroke-width="1" stroke-dasharray="2,2"/>
</svg>