<svg width="64" height="64" xmlns="http://www.w3.org/2000/svg">
  <!-- Goku Jumping Pose -->
  
  <!-- Hair (flowing upward) -->
  <path d="M32,8 L28,2 L26,5 L24,1 L22,4 L20,0 L18,5 L16,2 L14,6 L18,9 L20,7 L22,10 L24,7 L26,11 L28,8 L30,12 L34,8 L36,12 L38,9 L40,13 L42,10 L44,14 L48,8 L46,6 L44,9 L42,5 L40,8 L38,4 L36,7 Z" fill="#000000"/>
  
  <!-- Head -->
  <circle cx="32" cy="18" r="10" fill="#FFD700"/>
  
  <!-- Face (excited expression) -->
  <circle cx="28" cy="16" r="1" fill="#000000"/> <!-- Left eye -->
  <circle cx="36" cy="16" r="1" fill="#000000"/> <!-- Right eye -->
  <path d="M30,20 Q32,22 34,20" stroke="#000000" stroke-width="1" fill="none"/> <!-- Smile -->
  
  <!-- Neck -->
  <rect x="30" y="28" width="4" height="2" fill="#FFD700"/>
  
  <!-- Torso - Gi Top (slightly curved for jump) -->
  <path d="M26,30 L38,30 L40,46 L24,46 Z" fill="#FF6600"/> <!-- Orange Gi -->
  <path d="M30,30 L34,30 L34,40 L30,40 Z" fill="#0000FF"/> <!-- Blue undershirt -->
  <path d="M26,30 L30,30 L30,34 L26,34 Z" fill="#0000FF"/> <!-- Left sleeve -->
  <path d="M34,30 L38,30 L38,34 L34,34 Z" fill="#0000FF"/> <!-- Right sleeve -->
  
  <!-- Belt -->
  <rect x="24" y="40" width="16" height="2" fill="#0000FF"/>
  
  <!-- Arms (raised up) -->
  <rect x="24" y="34" width="4" height="10" rx="2" transform="rotate(-45 24 34)" fill="#FFD700"/> <!-- Left arm -->
  <rect x="36" y="34" width="4" height="10" rx="2" transform="rotate(45 36 34)" fill="#FFD700"/> <!-- Right arm -->
  
  <!-- Hands -->
  <circle cx="18" cy="28" r="2" fill="#FFD700"/> <!-- Left hand -->
  <circle cx="46" cy="28" r="2" fill="#FFD700"/> <!-- Right hand -->
  
  <!-- Legs (tucked up for jump) -->
  <rect x="28" y="46" width="4" height="8" transform="rotate(30 28 46)" fill="#0000FF"/> <!-- Left leg -->
  <rect x="32" y="46" width="4" height="8" transform="rotate(-30 32 46)" fill="#0000FF"/> <!-- Right leg -->
  
  <!-- Feet -->
  <rect x="32" y="52" width="6" height="2" rx="1" transform="rotate(30 32 52)" fill="#000000"/> <!-- Left foot -->
  <rect x="26" y="52" width="6" height="2" rx="1" transform="rotate(-30 26 52)" fill="#000000"/> <!-- Right foot -->
  
  <!-- Motion/Air effect -->
  <ellipse cx="32" cy="60" rx="10" ry="2" fill="#CCCCCC" opacity="0.5"/> <!-- Shadow -->
  <path d="M20,40 Q32,36 44,40" stroke="#FFFFFF" stroke-width="1" fill="none" stroke-dasharray="2,2"/> <!-- Air curve -->
  <path d="M18,35 Q32,31 46,35" stroke="#FFFFFF" stroke-width="1" fill="none" stroke-dasharray="2,2"/> <!-- Air curve -->
</svg>