<svg width="64" height="64" xmlns="http://www.w3.org/2000/svg">
  <!-- Krillin Attacking Pose (Energy Disc) -->
  
  <!-- Head (bald with dots, focused expression) -->
  <circle cx="32" cy="18" r="10" fill="#FFD700" transform="rotate(-10 32 18)"/> <!-- Head -->
  
  <!-- Face (determined) -->
  <circle cx="28" cy="16" r="1" fill="#000000" transform="rotate(-10 32 18)"/> <!-- Left eye -->
  <circle cx="36" cy="16" r="1" fill="#000000" transform="rotate(-10 32 18)"/> <!-- Right eye -->
  <path d="M30,20 L34,20" stroke="#000000" stroke-width="1" transform="rotate(-10 32 18)"/> <!-- Serious mouth -->
  <path d="M27,14 Q28,13 29,13" stroke="#000000" stroke-width="1" fill="none" transform="rotate(-10 32 18)"/> <!-- Left eyebrow (furrowed) -->
  <path d="M35,13 Q36,12 37,13" stroke="#000000" stroke-width="1" fill="none" transform="rotate(-10 32 18)"/> <!-- Right eyebrow (furrowed) -->
  
  <!-- Characteristic dots on forehead -->
  <circle cx="30" cy="10" r="0.8" fill="#000000" transform="rotate(-10 32 18)"/>
  <circle cx="32" cy="10" r="0.8" fill="#000000" transform="rotate(-10 32 18)"/>
  <circle cx="34" cy="10" r="0.8" fill="#000000" transform="rotate(-10 32 18)"/>
  <circle cx="29" cy="12" r="0.8" fill="#000000" transform="rotate(-10 32 18)"/>
  <circle cx="32" cy="12" r="0.8" fill="#000000" transform="rotate(-10 32 18)"/>
  <circle cx="35" cy="12" r="0.8" fill="#000000" transform="rotate(-10 32 18)"/>
  
  <!-- Neck -->
  <rect x="30" y="28" width="4" height="2" fill="#FFD700" transform="rotate(-10 32 18)"/>
  
  <!-- Torso - Gi (twisted for attack) -->
  <path d="M26,30 L38,30 L40,44 L24,44 Z" fill="#FF8C00" transform="rotate(-15 32 37)"/> <!-- Orange gi -->
  <path d="M26,30 L38,30 L36,34 L28,34 Z" fill="#FF4500" transform="rotate(-15 32 37)"/> <!-- Gi detail/shadow -->
  
  <!-- Belt -->
  <rect x="24" y="44" width="16" height="2" fill="#FFFFFF" transform="rotate(-15 32 37)"/> <!-- White belt -->
  
  <!-- Arms (in attack position) -->
  <rect x="24" y="30" width="4" height="12" rx="2" transform="rotate(-15 24 30)" fill="#FFD700"/> <!-- Left arm back -->
  <rect x="36" y="30" width="4" height="12" rx="2" transform="rotate(-80 36 30)" fill="#FFD700"/> <!-- Right arm raised (attacking) -->
  
  <!-- Hands -->
  <circle cx="22" cy="36" r="2" fill="#FFD700"/> <!-- Left hand -->
  <circle cx="42" cy="20" r="2" fill="#FFD700"/> <!-- Right hand (with energy disc) -->
  
  <!-- Energy Disc (Kienzan/Destructo Disc) -->
  <defs>
    <radialGradient id="discGradient" cx="50%" cy="50%" r="50%" fx="50%" fy="50%">
      <stop offset="0%" style="stop-color:#FFFF00"/> <!-- Yellow center -->
      <stop offset="70%" style="stop-color:#FFA500"/> <!-- Orange -->
      <stop offset="100%" style="stop-color:#FF4500"/> <!-- Red-orange edge -->
    </radialGradient>
  </defs>
  
  <circle cx="48" cy="16" r="6" fill="url(#discGradient)" stroke="#FFFFFF" stroke-width="1"/> <!-- Energy disc -->
  
  <!-- Disc rotation effect -->
  <path d="M48,10 L48,22 M42,16 L54,16" stroke="#FFFFFF80" stroke-width="1"/>
  <path d="M44,12 L52,20 M44,20 L52,12" stroke="#FFFFFF80" stroke-width="1"/>
  
  <!-- Disc glow effect -->
  <circle cx="48" cy="16" r="8" stroke="#FFFF0044" stroke-width="2" fill="none"/>
  <circle cx="48" cy="16" r="10" stroke="#FFFF0022" stroke-width="1" fill="none"/>
  
  <!-- Legs (in attack stance) -->
  <rect x="28" y="46" width="3" height="12" transform="rotate(-5 28 46)" fill="#FF8C00"/> <!-- Left leg -->
  <rect x="33" y="46" width="3" height="12" transform="rotate(-25 33 46)" fill="#FF8C00"/> <!-- Right leg -->
  
  <!-- Feet/Shoes -->
  <rect x="27" y="58" width="5" height="2" rx="1" transform="rotate(-5 27 58)" fill="#0000CD"/> <!-- Left shoe -->
  <rect x="30" y="56" width="5" height="2" rx="1" transform="rotate(-25 30 56)" fill="#0000CD"/> <!-- Right shoe -->
  
  <!-- Gi symbol (Turtle School) -->
  <circle cx="32" cy="37" r="3" fill="#FFFFFF" transform="rotate(-15 32 37)"/>
  <path d="M30,37 Q32,35 34,37 Q32,39 30,37 Z" stroke="#000000" stroke-width="0.5" fill="none" transform="rotate(-15 32 37)"/> <!-- Simplified kanji -->
  
  <!-- Energy aura effect -->
  <circle cx="32" cy="32" r="22" stroke="#FFFF0022" stroke-width="2" fill="none"/>
</svg>