<svg width="64" height="64" xmlns="http://www.w3.org/2000/svg">
  <!-- Krillin Running Pose -->
  
  <!-- Head (bald with dots, slightly tilted forward) -->
  <circle cx="32" cy="18" r="10" fill="#FFD700" transform="rotate(-5 32 18)"/> <!-- Head -->
  
  <!-- Face -->
  <circle cx="28" cy="16" r="1" fill="#000000" transform="rotate(-5 32 18)"/> <!-- Left eye -->
  <circle cx="36" cy="16" r="1" fill="#000000" transform="rotate(-5 32 18)"/> <!-- Right eye -->
  <path d="M30,20 Q32,22 34,20" stroke="#000000" stroke-width="1" fill="none" transform="rotate(-5 32 18)"/> <!-- Smile -->
  <path d="M28,14 Q28,13 29,13" stroke="#000000" stroke-width="1" fill="none" transform="rotate(-5 32 18)"/> <!-- Left eyebrow -->
  <path d="M35,13 Q36,13 36,14" stroke="#000000" stroke-width="1" fill="none" transform="rotate(-5 32 18)"/> <!-- Right eyebrow -->
  
  <!-- Characteristic dots on forehead -->
  <circle cx="30" cy="10" r="0.8" fill="#000000" transform="rotate(-5 32 18)"/>
  <circle cx="32" cy="10" r="0.8" fill="#000000" transform="rotate(-5 32 18)"/>
  <circle cx="34" cy="10" r="0.8" fill="#000000" transform="rotate(-5 32 18)"/>
  <circle cx="29" cy="12" r="0.8" fill="#000000" transform="rotate(-5 32 18)"/>
  <circle cx="32" cy="12" r="0.8" fill="#000000" transform="rotate(-5 32 18)"/>
  <circle cx="35" cy="12" r="0.8" fill="#000000" transform="rotate(-5 32 18)"/>
  
  <!-- Neck -->
  <rect x="30" y="28" width="4" height="2" fill="#FFD700" transform="rotate(-5 32 18)"/>
  
  <!-- Torso - Gi (leaning forward) -->
  <path d="M26,30 L38,30 L40,44 L24,44 Z" fill="#FF8C00" transform="rotate(-10 32 37)"/> <!-- Orange gi -->
  <path d="M26,30 L38,30 L36,34 L28,34 Z" fill="#FF4500" transform="rotate(-10 32 37)"/> <!-- Gi detail/shadow -->
  
  <!-- Belt -->
  <rect x="24" y="44" width="16" height="2" fill="#FFFFFF" transform="rotate(-10 32 37)"/> <!-- White belt -->
  
  <!-- Arms (in running position) -->
  <rect x="24" y="30" width="4" height="12" rx="2" transform="rotate(30 24 30)" fill="#FFD700"/> <!-- Left arm forward -->
  <rect x="36" y="30" width="4" height="12" rx="2" transform="rotate(-30 36 30)" fill="#FFD700"/> <!-- Right arm back -->
  
  <!-- Hands -->
  <circle cx="20" cy="36" r="2" fill="#FFD700"/> <!-- Left hand -->
  <circle cx="40" cy="36" r="2" fill="#FFD700"/> <!-- Right hand -->
  
  <!-- Legs (in running stride) -->
  <rect x="28" y="46" width="3" height="12" transform="rotate(-30 28 46)" fill="#FF8C00"/> <!-- Left leg back -->
  <rect x="33" y="46" width="3" height="12" transform="rotate(30 33 46)" fill="#FF8C00"/> <!-- Right leg forward -->
  
  <!-- Feet/Shoes -->
  <rect x="22" y="54" width="5" height="2" rx="1" transform="rotate(-30 22 54)" fill="#0000CD"/> <!-- Left shoe -->
  <rect x="39" y="54" width="5" height="2" rx="1" transform="rotate(30 39 54)" fill="#0000CD"/> <!-- Right shoe -->
  
  <!-- Gi symbol (Turtle School) -->
  <circle cx="32" cy="37" r="3" fill="#FFFFFF" transform="rotate(-10 32 37)"/>
  <path d="M30,37 Q32,35 34,37 Q32,39 30,37 Z" stroke="#000000" stroke-width="0.5" fill="none" transform="rotate(-10 32 37)"/> <!-- Simplified kanji -->
  
  <!-- Motion lines -->
  <line x1="16" y1="36" x2="12" y2="36" stroke="#000000" stroke-width="1" stroke-dasharray="2,2"/>
  <line x1="18" y1="46" x2="14" y2="46" stroke="#000000" stroke-width="1" stroke-dasharray="2,2"/>
  <line x1="20" y1="56" x2="16" y2="56" stroke="#000000" stroke-width="1" stroke-dasharray="2,2"/>
  
  <!-- Shadow (elongated for motion) -->
  <ellipse cx="32" cy="62" rx="12" ry="1" fill="#00000033"/>
</svg>