<svg width="64" height="64" xmlns="http://www.w3.org/2000/svg">
  <!-- Krillin Jumping Pose -->
  
  <!-- Head (bald with dots, looking up) -->
  <circle cx="32" cy="18" r="10" fill="#FFD700" transform="rotate(5 32 18)"/> <!-- Head -->
  
  <!-- Face -->
  <circle cx="28" cy="16" r="1" fill="#000000" transform="rotate(5 32 18)"/> <!-- Left eye -->
  <circle cx="36" cy="16" r="1" fill="#000000" transform="rotate(5 32 18)"/> <!-- Right eye -->
  <path d="M30,20 Q32,22 34,20" stroke="#000000" stroke-width="1" fill="none" transform="rotate(5 32 18)"/> <!-- Smile -->
  <path d="M28,14 Q28,13 29,13" stroke="#000000" stroke-width="1" fill="none" transform="rotate(5 32 18)"/> <!-- Left eyebrow -->
  <path d="M35,13 Q36,13 36,14" stroke="#000000" stroke-width="1" fill="none" transform="rotate(5 32 18)"/> <!-- Right eyebrow -->
  
  <!-- Characteristic dots on forehead -->
  <circle cx="30" cy="10" r="0.8" fill="#000000" transform="rotate(5 32 18)"/>
  <circle cx="32" cy="10" r="0.8" fill="#000000" transform="rotate(5 32 18)"/>
  <circle cx="34" cy="10" r="0.8" fill="#000000" transform="rotate(5 32 18)"/>
  <circle cx="29" cy="12" r="0.8" fill="#000000" transform="rotate(5 32 18)"/>
  <circle cx="32" cy="12" r="0.8" fill="#000000" transform="rotate(5 32 18)"/>
  <circle cx="35" cy="12" r="0.8" fill="#000000" transform="rotate(5 32 18)"/>
  
  <!-- Neck -->
  <rect x="30" y="28" width="4" height="2" fill="#FFD700" transform="rotate(5 32 18)"/>
  
  <!-- Torso - Gi (slightly arched back) -->
  <path d="M26,30 L38,30 L40,44 L24,44 Z" fill="#FF8C00" transform="rotate(10 32 37)"/> <!-- Orange gi -->
  <path d="M26,30 L38,30 L36,34 L28,34 Z" fill="#FF4500" transform="rotate(10 32 37)"/> <!-- Gi detail/shadow -->
  
  <!-- Belt -->
  <rect x="24" y="44" width="16" height="2" fill="#FFFFFF" transform="rotate(10 32 37)"/> <!-- White belt -->
  
  <!-- Arms (raised for jump) -->
  <rect x="24" y="30" width="4" height="12" rx="2" transform="rotate(-45 24 30)" fill="#FFD700"/> <!-- Left arm up -->
  <rect x="36" y="30" width="4" height="12" rx="2" transform="rotate(45 36 30)" fill="#FFD700"/> <!-- Right arm up -->
  
  <!-- Hands -->
  <circle cx="18" cy="24" r="2" fill="#FFD700"/> <!-- Left hand -->
  <circle cx="46" cy="24" r="2" fill="#FFD700"/> <!-- Right hand -->
  
  <!-- Legs (bent for jump) -->
  <rect x="28" y="46" width="3" height="10" transform="rotate(-30 28 46)" fill="#FF8C00"/> <!-- Left leg -->
  <rect x="33" y="46" width="3" height="10" transform="rotate(30 33 46)" fill="#FF8C00"/> <!-- Right leg -->
  
  <!-- Feet/Shoes -->
  <rect x="22" y="52" width="5" height="2" rx="1" transform="rotate(-30 22 52)" fill="#0000CD"/> <!-- Left shoe -->
  <rect x="42" y="52" width="5" height="2" rx="1" transform="rotate(30 42 52)" fill="#0000CD"/> <!-- Right shoe -->
  
  <!-- Gi symbol (Turtle School) -->
  <circle cx="32" cy="37" r="3" fill="#FFFFFF" transform="rotate(10 32 37)"/>
  <path d="M30,37 Q32,35 34,37 Q32,39 30,37 Z" stroke="#000000" stroke-width="0.5" fill="none" transform="rotate(10 32 37)"/> <!-- Simplified kanji -->
  
  <!-- Jump effect/motion lines -->
  <path d="M20,56 Q32,52 44,56" stroke="#000000" stroke-width="1" stroke-dasharray="2,2" fill="none"/> <!-- Ground impact line -->
  <line x1="24" y1="60" x2="24" y2="56" stroke="#000000" stroke-width="1" stroke-dasharray="2,2"/>
  <line x1="32" y1="62" x2="32" y2="58" stroke="#000000" stroke-width="1" stroke-dasharray="2,2"/>
  <line x1="40" y1="60" x2="40" y2="56" stroke="#000000" stroke-width="1" stroke-dasharray="2,2"/>
  
  <!-- Energy effect (ki) -->
  <circle cx="32" cy="32" r="20" stroke="#FFFFFF33" stroke-width="2" fill="none"/>
</svg>