<svg width="64" height="64" xmlns="http://www.w3.org/2000/svg">
  <!-- Krillin Idle Pose -->
  
  <!-- Head (bald with dots) -->
  <circle cx="32" cy="18" r="10" fill="#FFD700"/> <!-- Head -->
  
  <!-- Face -->
  <circle cx="28" cy="16" r="1" fill="#000000"/> <!-- Left eye -->
  <circle cx="36" cy="16" r="1" fill="#000000"/> <!-- Right eye -->
  <path d="M30,20 Q32,22 34,20" stroke="#000000" stroke-width="1" fill="none"/> <!-- Smile -->
  <path d="M28,14 Q28,13 29,13" stroke="#000000" stroke-width="1" fill="none"/> <!-- Left eyebrow -->
  <path d="M35,13 Q36,13 36,14" stroke="#000000" stroke-width="1" fill="none"/> <!-- Right eyebrow -->
  
  <!-- Characteristic dots on forehead -->
  <circle cx="30" cy="10" r="0.8" fill="#000000"/>
  <circle cx="32" cy="10" r="0.8" fill="#000000"/>
  <circle cx="34" cy="10" r="0.8" fill="#000000"/>
  <circle cx="29" cy="12" r="0.8" fill="#000000"/>
  <circle cx="32" cy="12" r="0.8" fill="#000000"/>
  <circle cx="35" cy="12" r="0.8" fill="#000000"/>
  
  <!-- No visible ears (characteristic of Krillin) -->
  
  <!-- Neck -->
  <rect x="30" y="28" width="4" height="2" fill="#FFD700"/>
  
  <!-- Torso - Gi -->
  <path d="M26,30 L38,30 L40,44 L24,44 Z" fill="#FF8C00"/> <!-- Orange gi -->
  <path d="M26,30 L38,30 L36,34 L28,34 Z" fill="#FF4500"/> <!-- Gi detail/shadow -->
  
  <!-- Belt -->
  <rect x="24" y="44" width="16" height="2" fill="#FFFFFF"/> <!-- White belt -->
  
  <!-- Arms -->
  <rect x="24" y="30" width="4" height="12" rx="2" fill="#FFD700"/> <!-- Left arm -->
  <rect x="36" y="30" width="4" height="12" rx="2" fill="#FFD700"/> <!-- Right arm -->
  
  <!-- Hands -->
  <circle cx="24" cy="42" r="2" fill="#FFD700"/> <!-- Left hand -->
  <circle cx="40" cy="42" r="2" fill="#FFD700"/> <!-- Right hand -->
  
  <!-- Legs -->
  <rect x="28" y="46" width="3" height="12" fill="#FF8C00"/> <!-- Left leg -->
  <rect x="33" y="46" width="3" height="12" fill="#FF8C00"/> <!-- Right leg -->
  
  <!-- Feet/Shoes -->
  <rect x="27" y="58" width="5" height="2" rx="1" fill="#0000CD"/> <!-- Left shoe -->
  <rect x="32" y="58" width="5" height="2" rx="1" fill="#0000CD"/> <!-- Right shoe -->
  
  <!-- Gi symbol (Turtle School) -->
  <circle cx="32" cy="37" r="3" fill="#FFFFFF"/>
  <path d="M30,37 Q32,35 34,37 Q32,39 30,37 Z" stroke="#000000" stroke-width="0.5" fill="none"/> <!-- Simplified kanji -->
  
  <!-- Shadow -->
  <ellipse cx="32" cy="62" rx="10" ry="1" fill="#00000033"/>
</svg>