<svg width="64" height="64" xmlns="http://www.w3.org/2000/svg">
  <!-- Dragon Ball (1-Star) -->
  
  <!-- Main ball (orange sphere with gradient) -->
  <defs>
    <radialGradient id="orangeGlow" cx="50%" cy="50%" r="50%" fx="30%" fy="30%">
      <stop offset="0%" style="stop-color:#FFCC00"/> <!-- Bright center -->
      <stop offset="70%" style="stop-color:#FF8C00"/> <!-- Orange -->
      <stop offset="100%" style="stop-color:#FF4500"/> <!-- Darker edge -->
    </radialGradient>
  </defs>
  
  <!-- Ball with shadow -->
  <circle cx="32" cy="32" r="20" fill="url(#orangeGlow)"/>
  <ellipse cx="32" cy="56" rx="16" ry="4" fill="#00000044"/> <!-- Shadow -->
  
  <!-- Highlight/reflection -->
  <ellipse cx="26" cy="26" rx="8" ry="6" fill="#FFFFFF80" transform="rotate(-20 26 26)"/>
  
  <!-- Star (1-star) -->
  <polygon points="32,20 34,26 40,26 35,30 37,36 32,32 27,36 29,30 24,26 30,26" fill="#FF0000" transform="scale(0.8) translate(8, 8)"/>
  
  <!-- Outer glow effect -->
  <circle cx="32" cy="32" r="22" stroke="#FFCC0044" stroke-width="4" fill="none"/>
  <circle cx="32" cy="32" r="24" stroke="#FFCC0022" stroke-width="2" fill="none"/>
  
  <!-- Sparkle effects -->
  <path d="M20,20 L18,18 M44,20 L46,18 M20,44 L18,46 M44,44 L46,46" stroke="#FFFFFF" stroke-width="1"/>
  <path d="M32,10 L32,8 M32,54 L32,56 M10,32 L8,32 M54,32 L56,32" stroke="#FFFFFF" stroke-width="1"/>
</svg>