<svg width="64" height="64" xmlns="http://www.w3.org/2000/svg">
  <!-- Health Potion -->
  
  <!-- Potion bottle -->
  <defs>
    <linearGradient id="glassGradient" x1="0%" y1="0%" x2="100%" y2="0%">
      <stop offset="0%" style="stop-color:#FFFFFF;stop-opacity:0.7"/>
      <stop offset="50%" style="stop-color:#FFFFFF;stop-opacity:0.1"/>
      <stop offset="100%" style="stop-color:#FFFFFF;stop-opacity:0.7"/>
    </linearGradient>
    
    <radialGradient id="liquidGradient" cx="50%" cy="60%" r="50%" fx="50%" fy="50%">
      <stop offset="0%" style="stop-color:#FF6666"/> <!-- Bright red center -->
      <stop offset="100%" style="stop-color:#CC0000"/> <!-- Darker red edge -->
    </radialGradient>
  </defs>
  
  <!-- Bottle shadow -->
  <ellipse cx="32" cy="56" rx="12" ry="3" fill="#00000044"/>
  
  <!-- Bottle neck -->
  <rect x="28" y="12" width="8" height="8" fill="url(#glassGradient)" stroke="#CCCCCC" stroke-width="1"/>
  
  <!-- Bottle body -->
  <path d="M26,20 L38,20 C42,20 46,30 46,40 C46,48 40,52 32,52 C24,52 18,48 18,40 C18,30 22,20 26,20 Z" fill="url(#glassGradient)" stroke="#CCCCCC" stroke-width="1"/>
  
  <!-- Bottle cork -->
  <rect x="27" y="9" width="10" height="3" fill="#A0522D" stroke="#8B4513" stroke-width="1"/>
  
  <!-- Liquid inside -->
  <path d="M26,22 L38,22 C40,22 44,30 44,40 C44,46 38,50 32,50 C26,50 20,46 20,40 C20,30 24,22 26,22 Z" fill="url(#liquidGradient)"/>
  
  <!-- Liquid surface with meniscus -->
  <path d="M26,22 Q32,24 38,22" stroke="#FF3333" stroke-width="2" fill="none"/>
  
  <!-- Bubbles in liquid -->
  <circle cx="28" cy="30" r="1.5" fill="#FFFFFF80"/>
  <circle cx="36" cy="38" r="2" fill="#FFFFFF80"/>
  <circle cx="30" cy="44" r="1" fill="#FFFFFF80"/>
  
  <!-- Bottle highlights/reflections -->
  <path d="M22,30 Q24,35 22,40" stroke="#FFFFFF" stroke-width="1" fill="none" opacity="0.7"/>
  <path d="M42,30 Q40,35 42,40" stroke="#FFFFFF" stroke-width="1" fill="none" opacity="0.7"/>
  
  <!-- Health symbol -->
  <path d="M32,28 L32,44 M24,36 L40,36" stroke="#FFFFFF" stroke-width="2" opacity="0.8"/>
  
  <!-- Glow effect -->
  <circle cx="32" cy="36" r="16" stroke="#FF000033" stroke-width="4" fill="none"/>
</svg>