<svg width="64" height="64" xmlns="http://www.w3.org/2000/svg">
  <!-- Key Item (Ancient Scroll) -->
  
  <!-- Scroll shadow -->
  <ellipse cx="32" cy="56" rx="16" ry="3" fill="#00000044"/>
  
  <!-- Scroll paper with gradient -->
  <defs>
    <linearGradient id="paperGradient" x1="0%" y1="0%" x2="100%" y2="0%">
      <stop offset="0%" style="stop-color:#F5DEB3"/> <!-- Wheat -->
      <stop offset="50%" style="stop-color:#FAEBD7"/> <!-- AntiqueWhite -->
      <stop offset="100%" style="stop-color:#F5DEB3"/> <!-- Wheat -->
    </linearGradient>
  </defs>
  
  <!-- Main scroll -->
  <rect x="12" y="16" width="40" height="32" rx="2" fill="url(#paperGradient)" stroke="#D2B48C" stroke-width="1"/>
  
  <!-- Scroll edges (rolled) -->
  <path d="M12,16 Q12,8 16,8 Q20,8 20,16" fill="#D2B48C" stroke="#A0522D" stroke-width="1"/>
  <path d="M52,16 Q52,8 48,8 Q44,8 44,16" fill="#D2B48C" stroke="#A0522D" stroke-width="1"/>
  <path d="M12,48 Q12,56 16,56 Q20,56 20,48" fill="#D2B48C" stroke="#A0522D" stroke-width="1"/>
  <path d="M52,48 Q52,56 48,56 Q44,56 44,48" fill="#D2B48C" stroke="#A0522D" stroke-width="1"/>
  
  <!-- Scroll handles -->
  <circle cx="16" cy="12" r="4" fill="#8B4513" stroke="#A0522D" stroke-width="1"/>
  <circle cx="48" cy="12" r="4" fill="#8B4513" stroke="#A0522D" stroke-width="1"/>
  <circle cx="16" cy="52" r="4" fill="#8B4513" stroke="#A0522D" stroke-width="1"/>
  <circle cx="48" cy="52" r="4" fill="#8B4513" stroke="#A0522D" stroke-width="1"/>
  
  <!-- Ancient text (symbols) -->
  <path d="M20,24 L44,24" stroke="#8B4513" stroke-width="1"/>
  <path d="M20,28 L44,28" stroke="#8B4513" stroke-width="1"/>
  <path d="M20,32 L44,32" stroke="#8B4513" stroke-width="1"/>
  <path d="M20,36 L44,36" stroke="#8B4513" stroke-width="1"/>
  <path d="M20,40 L44,40" stroke="#8B4513" stroke-width="1"/>
  
  <!-- Special symbols -->
  <circle cx="24" cy="26" r="1" fill="#8B4513"/>
  <circle cx="40" cy="26" r="1" fill="#8B4513"/>
  <path d="M30,30 L34,30 L32,34 Z" fill="#8B4513"/>
  <rect x="28" cy="38" width="8" height="2" fill="#8B4513"/>
  
  <!-- Dragon symbol -->
  <path d="M32,20 Q36,16 40,20 Q42,22 40,24 Q38,26 32,24 Q26,26 24,24 Q22,22 24,20 Q28,16 32,20 Z" stroke="#A0522D" stroke-width="1" fill="none"/>
  <circle cx="28" cy="20" r="1" fill="#A0522D"/> <!-- Eye -->
  <circle cx="36" cy="20" r="1" fill="#A0522D"/> <!-- Eye -->
  
  <!-- Mystical glow -->
  <rect x="12" y="16" width="40" height="32" rx="2" stroke="#FFD70044" stroke-width="4" fill="none"/>
</svg>